<svg xmlns="http://www.w3.org/2000/svg" viewBox="0 0 64 64">
  <rect x="0" y="0" width="64" height="64" rx="16" fill="#6E2A3A"/>
  <path d="M22 13c0 3-3 3.5-3 6.5" stroke="#F7F3E8" stroke-width="2.6" fill="none" stroke-linecap="round"/>
  <path d="M32 10c0 3.6-3 4.2-3 7.8" stroke="#F7F3E8" stroke-width="2.6" fill="none" stroke-linecap="round"/>
  <path d="M42 13c0 3-3 3.5-3 6.5" stroke="#F7F3E8" stroke-width="2.6" fill="none" stroke-linecap="round"/>
  <rect x="12" y="27" width="40" height="4.5" rx="2.2" fill="#F7F3E8"/>
  <rect x="7" y="28.5" width="6" height="3" rx="1.5" fill="#F7F3E8"/>
  <rect x="51" y="28.5" width="6" height="3" rx="1.5" fill="#F7F3E8"/>
  <path d="M15 34h34v10.5c0 4.5-3.5 8-8 8H23c-4.5 0-8-3.5-8-8z" fill="#F7F3E8"/>
</svg>
